<?xml version="1.0" encoding="utf-8" standalone="no"?>
<!DOCTYPE svg PUBLIC "-//W3C//DTD SVG 1.1//EN"
  "http://www.w3.org/Graphics/SVG/1.1/DTD/svg11.dtd">
<svg xmlns:xlink="http://www.w3.org/1999/xlink" width="1080pt" height="720pt" viewBox="0 0 1080 720" xmlns="http://www.w3.org/2000/svg" version="1.1">
 <metadata>
  <rdf:RDF xmlns:dc="http://purl.org/dc/elements/1.1/" xmlns:cc="http://creativecommons.org/ns#" xmlns:rdf="http://www.w3.org/1999/02/22-rdf-syntax-ns#">
   <cc:Work>
    <dc:type rdf:resource="http://purl.org/dc/dcmitype/StillImage"/>
    <dc:date>2025-05-10T20:24:46.468583</dc:date>
    <dc:format>image/svg+xml</dc:format>
    <dc:creator>
     <cc:Agent>
      <dc:title>Matplotlib v3.10.1, https://matplotlib.org/</dc:title>
     </cc:Agent>
    </dc:creator>
   </cc:Work>
  </rdf:RDF>
 </metadata>
 <defs>
  <style type="text/css">*{stroke-linejoin: round; stroke-linecap: butt}</style>
 </defs>
 <g id="figure_1">
  <g id="patch_1">
   <path d="M 0 720 
L 1080 720 
L 1080 0 
L 0 0 
z
" style="fill: #ffffff"/>
  </g>
  <g id="axes_1">
   <g id="patch_2">
    <path d="M 36.8875 355.275882 
L 321.956572 355.275882 
L 321.956572 25.918125 
L 36.8875 25.918125 
z
" style="fill: #ffffff"/>
   </g>
   <g id="patch_3">
    <path d="M 49.845185 355.275882 
L 60.211333 355.275882 
L 60.211333 342.34087 
L 49.845185 342.34087 
z
" clip-path="url(#p9dfa90f334)" style="fill: #1f77b4; stroke: #000000; stroke-linejoin: miter"/>
   </g>
   <g id="patch_4">
    <path d="M 60.211333 355.275882 
L 70.577481 355.275882 
L 70.577481 345.574623 
L 60.211333 345.574623 
z
" clip-path="url(#p9dfa90f334)" style="fill: #1f77b4; stroke: #000000; stroke-linejoin: miter"/>
   </g>
   <g id="patch_5">
    <path d="M 70.577481 355.275882 
L 80.943629 355.275882 
L 80.943629 345.574623 
L 70.577481 345.574623 
z
" clip-path="url(#p9dfa90f334)" style="fill: #1f77b4; stroke: #000000; stroke-linejoin: miter"/>
   </g>
   <g id="patch_6">
    <path d="M 80.943629 355.275882 
L 91.309777 355.275882 
L 91.309777 352.042129 
L 80.943629 352.042129 
z
" clip-path="url(#p9dfa90f334)" style="fill: #1f77b4; stroke: #000000; stroke-linejoin: miter"/>
   </g>
   <g id="patch_7">
    <path d="M 91.309777 355.275882 
L 101.675925 355.275882 
L 101.675925 342.34087 
L 91.309777 342.34087 
z
" clip-path="url(#p9dfa90f334)" style="fill: #1f77b4; stroke: #000000; stroke-linejoin: miter"/>
   </g>
   <g id="patch_8">
    <path d="M 101.675925 355.275882 
L 112.042073 355.275882 
L 112.042073 339.107117 
L 101.675925 339.107117 
z
" clip-path="url(#p9dfa90f334)" style="fill: #1f77b4; stroke: #000000; stroke-linejoin: miter"/>
   </g>
   <g id="patch_9">
    <path d="M 112.042073 355.275882 
L 122.408222 355.275882 
L 122.408222 41.601828 
L 112.042073 41.601828 
z
" clip-path="url(#p9dfa90f334)" style="fill: #1f77b4; stroke: #000000; stroke-linejoin: miter"/>
   </g>
   <g id="patch_10">
    <path d="M 122.408222 355.275882 
L 132.77437 355.275882 
L 132.77437 187.120719 
L 122.408222 187.120719 
z
" clip-path="url(#p9dfa90f334)" style="fill: #1f77b4; stroke: #000000; stroke-linejoin: miter"/>
   </g>
   <g id="patch_11">
    <path d="M 132.77437 355.275882 
L 143.140518 355.275882 
L 143.140518 206.523238 
L 132.77437 206.523238 
z
" clip-path="url(#p9dfa90f334)" style="fill: #1f77b4; stroke: #000000; stroke-linejoin: miter"/>
   </g>
   <g id="patch_12">
    <path d="M 143.140518 355.275882 
L 153.506666 355.275882 
L 153.506666 141.848175 
L 143.140518 141.848175 
z
" clip-path="url(#p9dfa90f334)" style="fill: #1f77b4; stroke: #000000; stroke-linejoin: miter"/>
   </g>
   <g id="patch_13">
    <path d="M 153.506666 355.275882 
L 163.872814 355.275882 
L 163.872814 193.588225 
L 153.506666 193.588225 
z
" clip-path="url(#p9dfa90f334)" style="fill: #1f77b4; stroke: #000000; stroke-linejoin: miter"/>
   </g>
   <g id="patch_14">
    <path d="M 163.872814 355.275882 
L 174.238962 355.275882 
L 174.238962 193.588225 
L 163.872814 193.588225 
z
" clip-path="url(#p9dfa90f334)" style="fill: #1f77b4; stroke: #000000; stroke-linejoin: miter"/>
   </g>
   <g id="patch_15">
    <path d="M 174.238962 355.275882 
L 184.60511 355.275882 
L 184.60511 183.886966 
L 174.238962 183.886966 
z
" clip-path="url(#p9dfa90f334)" style="fill: #1f77b4; stroke: #000000; stroke-linejoin: miter"/>
   </g>
   <g id="patch_16">
    <path d="M 184.60511 355.275882 
L 194.971258 355.275882 
L 194.971258 219.45825 
L 184.60511 219.45825 
z
" clip-path="url(#p9dfa90f334)" style="fill: #1f77b4; stroke: #000000; stroke-linejoin: miter"/>
   </g>
   <g id="patch_17">
    <path d="M 194.971258 355.275882 
L 205.337406 355.275882 
L 205.337406 238.860769 
L 194.971258 238.860769 
z
" clip-path="url(#p9dfa90f334)" style="fill: #1f77b4; stroke: #000000; stroke-linejoin: miter"/>
   </g>
   <g id="patch_18">
    <path d="M 205.337406 355.275882 
L 215.703554 355.275882 
L 215.703554 251.795782 
L 205.337406 251.795782 
z
" clip-path="url(#p9dfa90f334)" style="fill: #1f77b4; stroke: #000000; stroke-linejoin: miter"/>
   </g>
   <g id="patch_19">
    <path d="M 215.703554 355.275882 
L 226.069702 355.275882 
L 226.069702 274.432054 
L 215.703554 274.432054 
z
" clip-path="url(#p9dfa90f334)" style="fill: #1f77b4; stroke: #000000; stroke-linejoin: miter"/>
   </g>
   <g id="patch_20">
    <path d="M 226.069702 355.275882 
L 236.43585 355.275882 
L 236.43585 271.198301 
L 226.069702 271.198301 
z
" clip-path="url(#p9dfa90f334)" style="fill: #1f77b4; stroke: #000000; stroke-linejoin: miter"/>
   </g>
   <g id="patch_21">
    <path d="M 236.43585 355.275882 
L 246.801998 355.275882 
L 246.801998 248.562029 
L 236.43585 248.562029 
z
" clip-path="url(#p9dfa90f334)" style="fill: #1f77b4; stroke: #000000; stroke-linejoin: miter"/>
   </g>
   <g id="patch_22">
    <path d="M 246.801998 355.275882 
L 257.168146 355.275882 
L 257.168146 335.873364 
L 246.801998 335.873364 
z
" clip-path="url(#p9dfa90f334)" style="fill: #1f77b4; stroke: #000000; stroke-linejoin: miter"/>
   </g>
   <g id="patch_23">
    <path d="M 257.168146 355.275882 
L 267.534294 355.275882 
L 267.534294 326.172104 
L 257.168146 326.172104 
z
" clip-path="url(#p9dfa90f334)" style="fill: #1f77b4; stroke: #000000; stroke-linejoin: miter"/>
   </g>
   <g id="patch_24">
    <path d="M 267.534294 355.275882 
L 277.900442 355.275882 
L 277.900442 322.938351 
L 267.534294 322.938351 
z
" clip-path="url(#p9dfa90f334)" style="fill: #1f77b4; stroke: #000000; stroke-linejoin: miter"/>
   </g>
   <g id="patch_25">
    <path d="M 277.900442 355.275882 
L 288.266591 355.275882 
L 288.266591 348.808376 
L 277.900442 348.808376 
z
" clip-path="url(#p9dfa90f334)" style="fill: #1f77b4; stroke: #000000; stroke-linejoin: miter"/>
   </g>
   <g id="patch_26">
    <path d="M 288.266591 355.275882 
L 298.632739 355.275882 
L 298.632739 335.873364 
L 288.266591 335.873364 
z
" clip-path="url(#p9dfa90f334)" style="fill: #1f77b4; stroke: #000000; stroke-linejoin: miter"/>
   </g>
   <g id="patch_27">
    <path d="M 298.632739 355.275882 
L 308.998887 355.275882 
L 308.998887 335.873364 
L 298.632739 335.873364 
z
" clip-path="url(#p9dfa90f334)" style="fill: #1f77b4; stroke: #000000; stroke-linejoin: miter"/>
   </g>
   <g id="matplotlib.axis_1">
    <g id="xtick_1">
     <g id="line2d_1">
      <defs>
       <path id="m54f98cc48c" d="M 0 0 
L 0 3.5 
" style="stroke: #000000; stroke-width: 0.8"/>
      </defs>
      <g>
       <use xlink:href="#m54f98cc48c" x="38.585282" y="355.275882" style="stroke: #000000; stroke-width: 0.8"/>
      </g>
     </g>
     <g id="text_1">
      <!-- −4 -->
      <g transform="translate(31.214188 369.87432) scale(0.1 -0.1)">
       <defs>
        <path id="DejaVuSans-2212" d="M 678 2272 
L 4684 2272 
L 4684 1741 
L 678 1741 
L 678 2272 
z
" transform="scale(0.015625)"/>
        <path id="DejaVuSans-34" d="M 2419 4116 
L 825 1625 
L 2419 1625 
L 2419 4116 
z
M 2253 4666 
L 3047 4666 
L 3047 1625 
L 3713 1625 
L 3713 1100 
L 3047 1100 
L 3047 0 
L 2419 0 
L 2419 1100 
L 313 1100 
L 313 1709 
L 2253 4666 
z
" transform="scale(0.015625)"/>
       </defs>
       <use xlink:href="#DejaVuSans-2212"/>
       <use xlink:href="#DejaVuSans-34" transform="translate(83.789062 0)"/>
      </g>
     </g>
    </g>
    <g id="xtick_2">
     <g id="line2d_2">
      <g>
       <use xlink:href="#m54f98cc48c" x="73.772479" y="355.275882" style="stroke: #000000; stroke-width: 0.8"/>
      </g>
     </g>
     <g id="text_2">
      <!-- −2 -->
      <g transform="translate(66.401385 369.87432) scale(0.1 -0.1)">
       <defs>
        <path id="DejaVuSans-32" d="M 1228 531 
L 3431 531 
L 3431 0 
L 469 0 
L 469 531 
Q 828 903 1448 1529 
Q 2069 2156 2228 2338 
Q 2531 2678 2651 2914 
Q 2772 3150 2772 3378 
Q 2772 3750 2511 3984 
Q 2250 4219 1831 4219 
Q 1534 4219 1204 4116 
Q 875 4013 500 3803 
L 500 4441 
Q 881 4594 1212 4672 
Q 1544 4750 1819 4750 
Q 2544 4750 2975 4387 
Q 3406 4025 3406 3419 
Q 3406 3131 3298 2873 
Q 3191 2616 2906 2266 
Q 2828 2175 2409 1742 
Q 1991 1309 1228 531 
z
" transform="scale(0.015625)"/>
       </defs>
       <use xlink:href="#DejaVuSans-2212"/>
       <use xlink:href="#DejaVuSans-32" transform="translate(83.789062 0)"/>
      </g>
     </g>
    </g>
    <g id="xtick_3">
     <g id="line2d_3">
      <g>
       <use xlink:href="#m54f98cc48c" x="108.959675" y="355.275882" style="stroke: #000000; stroke-width: 0.8"/>
      </g>
     </g>
     <g id="text_3">
      <!-- 0 -->
      <g transform="translate(105.778425 369.87432) scale(0.1 -0.1)">
       <defs>
        <path id="DejaVuSans-30" d="M 2034 4250 
Q 1547 4250 1301 3770 
Q 1056 3291 1056 2328 
Q 1056 1369 1301 889 
Q 1547 409 2034 409 
Q 2525 409 2770 889 
Q 3016 1369 3016 2328 
Q 3016 3291 2770 3770 
Q 2525 4250 2034 4250 
z
M 2034 4750 
Q 2819 4750 3233 4129 
Q 3647 3509 3647 2328 
Q 3647 1150 3233 529 
Q 2819 -91 2034 -91 
Q 1250 -91 836 529 
Q 422 1150 422 2328 
Q 422 3509 836 4129 
Q 1250 4750 2034 4750 
z
" transform="scale(0.015625)"/>
       </defs>
       <use xlink:href="#DejaVuSans-30"/>
      </g>
     </g>
    </g>
    <g id="xtick_4">
     <g id="line2d_4">
      <g>
       <use xlink:href="#m54f98cc48c" x="144.146871" y="355.275882" style="stroke: #000000; stroke-width: 0.8"/>
      </g>
     </g>
     <g id="text_4">
      <!-- 2 -->
      <g transform="translate(140.965621 369.87432) scale(0.1 -0.1)">
       <use xlink:href="#DejaVuSans-32"/>
      </g>
     </g>
    </g>
    <g id="xtick_5">
     <g id="line2d_5">
      <g>
       <use xlink:href="#m54f98cc48c" x="179.334068" y="355.275882" style="stroke: #000000; stroke-width: 0.8"/>
      </g>
     </g>
     <g id="text_5">
      <!-- 4 -->
      <g transform="translate(176.152818 369.87432) scale(0.1 -0.1)">
       <use xlink:href="#DejaVuSans-34"/>
      </g>
     </g>
    </g>
    <g id="xtick_6">
     <g id="line2d_6">
      <g>
       <use xlink:href="#m54f98cc48c" x="214.521264" y="355.275882" style="stroke: #000000; stroke-width: 0.8"/>
      </g>
     </g>
     <g id="text_6">
      <!-- 6 -->
      <g transform="translate(211.340014 369.87432) scale(0.1 -0.1)">
       <defs>
        <path id="DejaVuSans-36" d="M 2113 2584 
Q 1688 2584 1439 2293 
Q 1191 2003 1191 1497 
Q 1191 994 1439 701 
Q 1688 409 2113 409 
Q 2538 409 2786 701 
Q 3034 994 3034 1497 
Q 3034 2003 2786 2293 
Q 2538 2584 2113 2584 
z
M 3366 4563 
L 3366 3988 
Q 3128 4100 2886 4159 
Q 2644 4219 2406 4219 
Q 1781 4219 1451 3797 
Q 1122 3375 1075 2522 
Q 1259 2794 1537 2939 
Q 1816 3084 2150 3084 
Q 2853 3084 3261 2657 
Q 3669 2231 3669 1497 
Q 3669 778 3244 343 
Q 2819 -91 2113 -91 
Q 1303 -91 875 529 
Q 447 1150 447 2328 
Q 447 3434 972 4092 
Q 1497 4750 2381 4750 
Q 2619 4750 2861 4703 
Q 3103 4656 3366 4563 
z
" transform="scale(0.015625)"/>
       </defs>
       <use xlink:href="#DejaVuSans-36"/>
      </g>
     </g>
    </g>
    <g id="xtick_7">
     <g id="line2d_7">
      <g>
       <use xlink:href="#m54f98cc48c" x="249.708461" y="355.275882" style="stroke: #000000; stroke-width: 0.8"/>
      </g>
     </g>
     <g id="text_7">
      <!-- 8 -->
      <g transform="translate(246.527211 369.87432) scale(0.1 -0.1)">
       <defs>
        <path id="DejaVuSans-38" d="M 2034 2216 
Q 1584 2216 1326 1975 
Q 1069 1734 1069 1313 
Q 1069 891 1326 650 
Q 1584 409 2034 409 
Q 2484 409 2743 651 
Q 3003 894 3003 1313 
Q 3003 1734 2745 1975 
Q 2488 2216 2034 2216 
z
M 1403 2484 
Q 997 2584 770 2862 
Q 544 3141 544 3541 
Q 544 4100 942 4425 
Q 1341 4750 2034 4750 
Q 2731 4750 3128 4425 
Q 3525 4100 3525 3541 
Q 3525 3141 3298 2862 
Q 3072 2584 2669 2484 
Q 3125 2378 3379 2068 
Q 3634 1759 3634 1313 
Q 3634 634 3220 271 
Q 2806 -91 2034 -91 
Q 1263 -91 848 271 
Q 434 634 434 1313 
Q 434 1759 690 2068 
Q 947 2378 1403 2484 
z
M 1172 3481 
Q 1172 3119 1398 2916 
Q 1625 2713 2034 2713 
Q 2441 2713 2670 2916 
Q 2900 3119 2900 3481 
Q 2900 3844 2670 4047 
Q 2441 4250 2034 4250 
Q 1625 4250 1398 4047 
Q 1172 3844 1172 3481 
z
" transform="scale(0.015625)"/>
       </defs>
       <use xlink:href="#DejaVuSans-38"/>
      </g>
     </g>
    </g>
    <g id="xtick_8">
     <g id="line2d_8">
      <g>
       <use xlink:href="#m54f98cc48c" x="284.895657" y="355.275882" style="stroke: #000000; stroke-width: 0.8"/>
      </g>
     </g>
     <g id="text_8">
      <!-- 10 -->
      <g transform="translate(278.533157 369.87432) scale(0.1 -0.1)">
       <defs>
        <path id="DejaVuSans-31" d="M 794 531 
L 1825 531 
L 1825 4091 
L 703 3866 
L 703 4441 
L 1819 4666 
L 2450 4666 
L 2450 531 
L 3481 531 
L 3481 0 
L 794 0 
L 794 531 
z
" transform="scale(0.015625)"/>
       </defs>
       <use xlink:href="#DejaVuSans-31"/>
       <use xlink:href="#DejaVuSans-30" transform="translate(63.623047 0)"/>
      </g>
     </g>
    </g>
    <g id="xtick_9">
     <g id="line2d_9">
      <g>
       <use xlink:href="#m54f98cc48c" x="320.082854" y="355.275882" style="stroke: #000000; stroke-width: 0.8"/>
      </g>
     </g>
     <g id="text_9">
      <!-- 12 -->
      <g transform="translate(313.720354 369.87432) scale(0.1 -0.1)">
       <use xlink:href="#DejaVuSans-31"/>
       <use xlink:href="#DejaVuSans-32" transform="translate(63.623047 0)"/>
      </g>
     </g>
    </g>
   </g>
   <g id="matplotlib.axis_2">
    <g id="ytick_1">
     <g id="line2d_10">
      <defs>
       <path id="mf81d1430d3" d="M 0 0 
L -3.5 0 
" style="stroke: #000000; stroke-width: 0.8"/>
      </defs>
      <g>
       <use xlink:href="#mf81d1430d3" x="36.8875" y="355.275882" style="stroke: #000000; stroke-width: 0.8"/>
      </g>
     </g>
     <g id="text_10">
      <!-- 0 -->
      <g transform="translate(23.525 359.075101) scale(0.1 -0.1)">
       <use xlink:href="#DejaVuSans-30"/>
      </g>
     </g>
    </g>
    <g id="ytick_2">
     <g id="line2d_11">
      <g>
       <use xlink:href="#mf81d1430d3" x="36.8875" y="290.60082" style="stroke: #000000; stroke-width: 0.8"/>
      </g>
     </g>
     <g id="text_11">
      <!-- 20 -->
      <g transform="translate(17.1625 294.400038) scale(0.1 -0.1)">
       <use xlink:href="#DejaVuSans-32"/>
       <use xlink:href="#DejaVuSans-30" transform="translate(63.623047 0)"/>
      </g>
     </g>
    </g>
    <g id="ytick_3">
     <g id="line2d_12">
      <g>
       <use xlink:href="#mf81d1430d3" x="36.8875" y="225.925757" style="stroke: #000000; stroke-width: 0.8"/>
      </g>
     </g>
     <g id="text_12">
      <!-- 40 -->
      <g transform="translate(17.1625 229.724975) scale(0.1 -0.1)">
       <use xlink:href="#DejaVuSans-34"/>
       <use xlink:href="#DejaVuSans-30" transform="translate(63.623047 0)"/>
      </g>
     </g>
    </g>
    <g id="ytick_4">
     <g id="line2d_13">
      <g>
       <use xlink:href="#mf81d1430d3" x="36.8875" y="161.250694" style="stroke: #000000; stroke-width: 0.8"/>
      </g>
     </g>
     <g id="text_13">
      <!-- 60 -->
      <g transform="translate(17.1625 165.049913) scale(0.1 -0.1)">
       <use xlink:href="#DejaVuSans-36"/>
       <use xlink:href="#DejaVuSans-30" transform="translate(63.623047 0)"/>
      </g>
     </g>
    </g>
    <g id="ytick_5">
     <g id="line2d_14">
      <g>
       <use xlink:href="#mf81d1430d3" x="36.8875" y="96.575631" style="stroke: #000000; stroke-width: 0.8"/>
      </g>
     </g>
     <g id="text_14">
      <!-- 80 -->
      <g transform="translate(17.1625 100.37485) scale(0.1 -0.1)">
       <use xlink:href="#DejaVuSans-38"/>
       <use xlink:href="#DejaVuSans-30" transform="translate(63.623047 0)"/>
      </g>
     </g>
    </g>
    <g id="ytick_6">
     <g id="line2d_15">
      <g>
       <use xlink:href="#mf81d1430d3" x="36.8875" y="31.900568" style="stroke: #000000; stroke-width: 0.8"/>
      </g>
     </g>
     <g id="text_15">
      <!-- 100 -->
      <g transform="translate(10.8 35.699787) scale(0.1 -0.1)">
       <use xlink:href="#DejaVuSans-31"/>
       <use xlink:href="#DejaVuSans-30" transform="translate(63.623047 0)"/>
       <use xlink:href="#DejaVuSans-30" transform="translate(127.246094 0)"/>
      </g>
     </g>
    </g>
   </g>
   <g id="patch_28">
    <path d="M 36.8875 355.275882 
L 36.8875 25.918125 
" style="fill: none; stroke: #000000; stroke-width: 0.8; stroke-linejoin: miter; stroke-linecap: square"/>
   </g>
   <g id="patch_29">
    <path d="M 321.956572 355.275882 
L 321.956572 25.918125 
" style="fill: none; stroke: #000000; stroke-width: 0.8; stroke-linejoin: miter; stroke-linecap: square"/>
   </g>
   <g id="patch_30">
    <path d="M 36.8875 355.275882 
L 321.956572 355.275882 
" style="fill: none; stroke: #000000; stroke-width: 0.8; stroke-linejoin: miter; stroke-linecap: square"/>
   </g>
   <g id="patch_31">
    <path d="M 36.8875 25.918125 
L 321.956572 25.918125 
" style="fill: none; stroke: #000000; stroke-width: 0.8; stroke-linejoin: miter; stroke-linecap: square"/>
   </g>
   <g id="text_16">
    <!-- 1 Standard Deviation -->
    <g transform="translate(115.793911 19.918125) scale(0.12 -0.12)">
     <defs>
      <path id="DejaVuSans-20" transform="scale(0.015625)"/>
      <path id="DejaVuSans-53" d="M 3425 4513 
L 3425 3897 
Q 3066 4069 2747 4153 
Q 2428 4238 2131 4238 
Q 1616 4238 1336 4038 
Q 1056 3838 1056 3469 
Q 1056 3159 1242 3001 
Q 1428 2844 1947 2747 
L 2328 2669 
Q 3034 2534 3370 2195 
Q 3706 1856 3706 1288 
Q 3706 609 3251 259 
Q 2797 -91 1919 -91 
Q 1588 -91 1214 -16 
Q 841 59 441 206 
L 441 856 
Q 825 641 1194 531 
Q 1563 422 1919 422 
Q 2459 422 2753 634 
Q 3047 847 3047 1241 
Q 3047 1584 2836 1778 
Q 2625 1972 2144 2069 
L 1759 2144 
Q 1053 2284 737 2584 
Q 422 2884 422 3419 
Q 422 4038 858 4394 
Q 1294 4750 2059 4750 
Q 2388 4750 2728 4690 
Q 3069 4631 3425 4513 
z
" transform="scale(0.015625)"/>
      <path id="DejaVuSans-74" d="M 1172 4494 
L 1172 3500 
L 2356 3500 
L 2356 3053 
L 1172 3053 
L 1172 1153 
Q 1172 725 1289 603 
Q 1406 481 1766 481 
L 2356 481 
L 2356 0 
L 1766 0 
Q 1100 0 847 248 
Q 594 497 594 1153 
L 594 3053 
L 172 3053 
L 172 3500 
L 594 3500 
L 594 4494 
L 1172 4494 
z
" transform="scale(0.015625)"/>
      <path id="DejaVuSans-61" d="M 2194 1759 
Q 1497 1759 1228 1600 
Q 959 1441 959 1056 
Q 959 750 1161 570 
Q 1363 391 1709 391 
Q 2188 391 2477 730 
Q 2766 1069 2766 1631 
L 2766 1759 
L 2194 1759 
z
M 3341 1997 
L 3341 0 
L 2766 0 
L 2766 531 
Q 2569 213 2275 61 
Q 1981 -91 1556 -91 
Q 1019 -91 701 211 
Q 384 513 384 1019 
Q 384 1609 779 1909 
Q 1175 2209 1959 2209 
L 2766 2209 
L 2766 2266 
Q 2766 2663 2505 2880 
Q 2244 3097 1772 3097 
Q 1472 3097 1187 3025 
Q 903 2953 641 2809 
L 641 3341 
Q 956 3463 1253 3523 
Q 1550 3584 1831 3584 
Q 2591 3584 2966 3190 
Q 3341 2797 3341 1997 
z
" transform="scale(0.015625)"/>
      <path id="DejaVuSans-6e" d="M 3513 2113 
L 3513 0 
L 2938 0 
L 2938 2094 
Q 2938 2591 2744 2837 
Q 2550 3084 2163 3084 
Q 1697 3084 1428 2787 
Q 1159 2491 1159 1978 
L 1159 0 
L 581 0 
L 581 3500 
L 1159 3500 
L 1159 2956 
Q 1366 3272 1645 3428 
Q 1925 3584 2291 3584 
Q 2894 3584 3203 3211 
Q 3513 2838 3513 2113 
z
" transform="scale(0.015625)"/>
      <path id="DejaVuSans-64" d="M 2906 2969 
L 2906 4863 
L 3481 4863 
L 3481 0 
L 2906 0 
L 2906 525 
Q 2725 213 2448 61 
Q 2172 -91 1784 -91 
Q 1150 -91 751 415 
Q 353 922 353 1747 
Q 353 2572 751 3078 
Q 1150 3584 1784 3584 
Q 2172 3584 2448 3432 
Q 2725 3281 2906 2969 
z
M 947 1747 
Q 947 1113 1208 752 
Q 1469 391 1925 391 
Q 2381 391 2643 752 
Q 2906 1113 2906 1747 
Q 2906 2381 2643 2742 
Q 2381 3103 1925 3103 
Q 1469 3103 1208 2742 
Q 947 2381 947 1747 
z
" transform="scale(0.015625)"/>
      <path id="DejaVuSans-72" d="M 2631 2963 
Q 2534 3019 2420 3045 
Q 2306 3072 2169 3072 
Q 1681 3072 1420 2755 
Q 1159 2438 1159 1844 
L 1159 0 
L 581 0 
L 581 3500 
L 1159 3500 
L 1159 2956 
Q 1341 3275 1631 3429 
Q 1922 3584 2338 3584 
Q 2397 3584 2469 3576 
Q 2541 3569 2628 3553 
L 2631 2963 
z
" transform="scale(0.015625)"/>
      <path id="DejaVuSans-44" d="M 1259 4147 
L 1259 519 
L 2022 519 
Q 2988 519 3436 956 
Q 3884 1394 3884 2338 
Q 3884 3275 3436 3711 
Q 2988 4147 2022 4147 
L 1259 4147 
z
M 628 4666 
L 1925 4666 
Q 3281 4666 3915 4102 
Q 4550 3538 4550 2338 
Q 4550 1131 3912 565 
Q 3275 0 1925 0 
L 628 0 
L 628 4666 
z
" transform="scale(0.015625)"/>
      <path id="DejaVuSans-65" d="M 3597 1894 
L 3597 1613 
L 953 1613 
Q 991 1019 1311 708 
Q 1631 397 2203 397 
Q 2534 397 2845 478 
Q 3156 559 3463 722 
L 3463 178 
Q 3153 47 2828 -22 
Q 2503 -91 2169 -91 
Q 1331 -91 842 396 
Q 353 884 353 1716 
Q 353 2575 817 3079 
Q 1281 3584 2069 3584 
Q 2775 3584 3186 3129 
Q 3597 2675 3597 1894 
z
M 3022 2063 
Q 3016 2534 2758 2815 
Q 2500 3097 2075 3097 
Q 1594 3097 1305 2825 
Q 1016 2553 972 2059 
L 3022 2063 
z
" transform="scale(0.015625)"/>
      <path id="DejaVuSans-76" d="M 191 3500 
L 800 3500 
L 1894 563 
L 2988 3500 
L 3597 3500 
L 2284 0 
L 1503 0 
L 191 3500 
z
" transform="scale(0.015625)"/>
      <path id="DejaVuSans-69" d="M 603 3500 
L 1178 3500 
L 1178 0 
L 603 0 
L 603 3500 
z
M 603 4863 
L 1178 4863 
L 1178 4134 
L 603 4134 
L 603 4863 
z
" transform="scale(0.015625)"/>
      <path id="DejaVuSans-6f" d="M 1959 3097 
Q 1497 3097 1228 2736 
Q 959 2375 959 1747 
Q 959 1119 1226 758 
Q 1494 397 1959 397 
Q 2419 397 2687 759 
Q 2956 1122 2956 1747 
Q 2956 2369 2687 2733 
Q 2419 3097 1959 3097 
z
M 1959 3584 
Q 2709 3584 3137 3096 
Q 3566 2609 3566 1747 
Q 3566 888 3137 398 
Q 2709 -91 1959 -91 
Q 1206 -91 779 398 
Q 353 888 353 1747 
Q 353 2609 779 3096 
Q 1206 3584 1959 3584 
z
" transform="scale(0.015625)"/>
     </defs>
     <use xlink:href="#DejaVuSans-31"/>
     <use xlink:href="#DejaVuSans-20" transform="translate(63.623047 0)"/>
     <use xlink:href="#DejaVuSans-53" transform="translate(95.410156 0)"/>
     <use xlink:href="#DejaVuSans-74" transform="translate(158.886719 0)"/>
     <use xlink:href="#DejaVuSans-61" transform="translate(198.095703 0)"/>
     <use xlink:href="#DejaVuSans-6e" transform="translate(259.375 0)"/>
     <use xlink:href="#DejaVuSans-64" transform="translate(322.753906 0)"/>
     <use xlink:href="#DejaVuSans-61" transform="translate(386.230469 0)"/>
     <use xlink:href="#DejaVuSans-72" transform="translate(447.509766 0)"/>
     <use xlink:href="#DejaVuSans-64" transform="translate(486.873047 0)"/>
     <use xlink:href="#DejaVuSans-20" transform="translate(550.349609 0)"/>
     <use xlink:href="#DejaVuSans-44" transform="translate(582.136719 0)"/>
     <use xlink:href="#DejaVuSans-65" transform="translate(659.138672 0)"/>
     <use xlink:href="#DejaVuSans-76" transform="translate(720.662109 0)"/>
     <use xlink:href="#DejaVuSans-69" transform="translate(779.841797 0)"/>
     <use xlink:href="#DejaVuSans-61" transform="translate(807.625 0)"/>
     <use xlink:href="#DejaVuSans-74" transform="translate(868.904297 0)"/>
     <use xlink:href="#DejaVuSans-69" transform="translate(908.113281 0)"/>
     <use xlink:href="#DejaVuSans-6f" transform="translate(935.896484 0)"/>
     <use xlink:href="#DejaVuSans-6e" transform="translate(997.078125 0)"/>
    </g>
   </g>
  </g>
  <g id="axes_2">
   <g id="patch_32">
    <path d="M 392.58305 355.275882 
L 677.652122 355.275882 
L 677.652122 25.918125 
L 392.58305 25.918125 
z
" style="fill: #ffffff"/>
   </g>
   <g id="patch_33">
    <path d="M 405.540735 355.275882 
L 415.508186 355.275882 
L 415.508186 346.313767 
L 405.540735 346.313767 
z
" clip-path="url(#p5dd3b76d31)" style="fill: #1f77b4; stroke: #000000; stroke-linejoin: miter"/>
   </g>
   <g id="patch_34">
    <path d="M 415.508186 355.275882 
L 425.475636 355.275882 
L 425.475636 355.275882 
L 415.508186 355.275882 
z
" clip-path="url(#p5dd3b76d31)" style="fill: #1f77b4; stroke: #000000; stroke-linejoin: miter"/>
   </g>
   <g id="patch_35">
    <path d="M 425.475636 355.275882 
L 435.443086 355.275882 
L 435.443086 352.28851 
L 425.475636 352.28851 
z
" clip-path="url(#p5dd3b76d31)" style="fill: #1f77b4; stroke: #000000; stroke-linejoin: miter"/>
   </g>
   <g id="patch_36">
    <path d="M 435.443086 355.275882 
L 445.410536 355.275882 
L 445.410536 349.301138 
L 435.443086 349.301138 
z
" clip-path="url(#p5dd3b76d31)" style="fill: #1f77b4; stroke: #000000; stroke-linejoin: miter"/>
   </g>
   <g id="patch_37">
    <path d="M 445.410536 355.275882 
L 455.377986 355.275882 
L 455.377986 355.275882 
L 445.410536 355.275882 
z
" clip-path="url(#p5dd3b76d31)" style="fill: #1f77b4; stroke: #000000; stroke-linejoin: miter"/>
   </g>
   <g id="patch_38">
    <path d="M 455.377986 355.275882 
L 465.345436 355.275882 
L 465.345436 349.301138 
L 455.377986 349.301138 
z
" clip-path="url(#p5dd3b76d31)" style="fill: #1f77b4; stroke: #000000; stroke-linejoin: miter"/>
   </g>
   <g id="patch_39">
    <path d="M 465.345436 355.275882 
L 475.312886 355.275882 
L 475.312886 340.339023 
L 465.345436 340.339023 
z
" clip-path="url(#p5dd3b76d31)" style="fill: #1f77b4; stroke: #000000; stroke-linejoin: miter"/>
   </g>
   <g id="patch_40">
    <path d="M 475.312886 355.275882 
L 485.280336 355.275882 
L 485.280336 343.326395 
L 475.312886 343.326395 
z
" clip-path="url(#p5dd3b76d31)" style="fill: #1f77b4; stroke: #000000; stroke-linejoin: miter"/>
   </g>
   <g id="patch_41">
    <path d="M 485.280336 355.275882 
L 495.247786 355.275882 
L 495.247786 337.351651 
L 485.280336 337.351651 
z
" clip-path="url(#p5dd3b76d31)" style="fill: #1f77b4; stroke: #000000; stroke-linejoin: miter"/>
   </g>
   <g id="patch_42">
    <path d="M 495.247786 355.275882 
L 505.215236 355.275882 
L 505.215236 53.551316 
L 495.247786 53.551316 
z
" clip-path="url(#p5dd3b76d31)" style="fill: #1f77b4; stroke: #000000; stroke-linejoin: miter"/>
   </g>
   <g id="patch_43">
    <path d="M 505.215236 355.275882 
L 515.182686 355.275882 
L 515.182686 104.336639 
L 505.215236 104.336639 
z
" clip-path="url(#p5dd3b76d31)" style="fill: #1f77b4; stroke: #000000; stroke-linejoin: miter"/>
   </g>
   <g id="patch_44">
    <path d="M 515.182686 355.275882 
L 525.150136 355.275882 
L 525.150136 41.601828 
L 515.182686 41.601828 
z
" clip-path="url(#p5dd3b76d31)" style="fill: #1f77b4; stroke: #000000; stroke-linejoin: miter"/>
   </g>
   <g id="patch_45">
    <path d="M 525.150136 355.275882 
L 535.117586 355.275882 
L 535.117586 95.374523 
L 525.150136 95.374523 
z
" clip-path="url(#p5dd3b76d31)" style="fill: #1f77b4; stroke: #000000; stroke-linejoin: miter"/>
   </g>
   <g id="patch_46">
    <path d="M 535.117586 355.275882 
L 545.085036 355.275882 
L 545.085036 116.286126 
L 535.117586 116.286126 
z
" clip-path="url(#p5dd3b76d31)" style="fill: #1f77b4; stroke: #000000; stroke-linejoin: miter"/>
   </g>
   <g id="patch_47">
    <path d="M 545.085036 355.275882 
L 555.052486 355.275882 
L 555.052486 164.084078 
L 545.085036 164.084078 
z
" clip-path="url(#p5dd3b76d31)" style="fill: #1f77b4; stroke: #000000; stroke-linejoin: miter"/>
   </g>
   <g id="patch_48">
    <path d="M 555.052486 355.275882 
L 565.019936 355.275882 
L 565.019936 253.705236 
L 555.052486 253.705236 
z
" clip-path="url(#p5dd3b76d31)" style="fill: #1f77b4; stroke: #000000; stroke-linejoin: miter"/>
   </g>
   <g id="patch_49">
    <path d="M 565.019936 355.275882 
L 574.987386 355.275882 
L 574.987386 182.008309 
L 565.019936 182.008309 
z
" clip-path="url(#p5dd3b76d31)" style="fill: #1f77b4; stroke: #000000; stroke-linejoin: miter"/>
   </g>
   <g id="patch_50">
    <path d="M 574.987386 355.275882 
L 584.954837 355.275882 
L 584.954837 316.440047 
L 574.987386 316.440047 
z
" clip-path="url(#p5dd3b76d31)" style="fill: #1f77b4; stroke: #000000; stroke-linejoin: miter"/>
   </g>
   <g id="patch_51">
    <path d="M 584.954837 355.275882 
L 594.922287 355.275882 
L 594.922287 319.427419 
L 584.954837 319.427419 
z
" clip-path="url(#p5dd3b76d31)" style="fill: #1f77b4; stroke: #000000; stroke-linejoin: miter"/>
   </g>
   <g id="patch_52">
    <path d="M 594.922287 355.275882 
L 604.889737 355.275882 
L 604.889737 328.389535 
L 594.922287 328.389535 
z
" clip-path="url(#p5dd3b76d31)" style="fill: #1f77b4; stroke: #000000; stroke-linejoin: miter"/>
   </g>
   <g id="patch_53">
    <path d="M 604.889737 355.275882 
L 614.857187 355.275882 
L 614.857187 328.389535 
L 604.889737 328.389535 
z
" clip-path="url(#p5dd3b76d31)" style="fill: #1f77b4; stroke: #000000; stroke-linejoin: miter"/>
   </g>
   <g id="patch_54">
    <path d="M 614.857187 355.275882 
L 624.824637 355.275882 
L 624.824637 343.326395 
L 614.857187 343.326395 
z
" clip-path="url(#p5dd3b76d31)" style="fill: #1f77b4; stroke: #000000; stroke-linejoin: miter"/>
   </g>
   <g id="patch_55">
    <path d="M 624.824637 355.275882 
L 634.792087 355.275882 
L 634.792087 340.339023 
L 624.824637 340.339023 
z
" clip-path="url(#p5dd3b76d31)" style="fill: #1f77b4; stroke: #000000; stroke-linejoin: miter"/>
   </g>
   <g id="patch_56">
    <path d="M 634.792087 355.275882 
L 644.759537 355.275882 
L 644.759537 346.313767 
L 634.792087 346.313767 
z
" clip-path="url(#p5dd3b76d31)" style="fill: #1f77b4; stroke: #000000; stroke-linejoin: miter"/>
   </g>
   <g id="patch_57">
    <path d="M 644.759537 355.275882 
L 654.726987 355.275882 
L 654.726987 340.339023 
L 644.759537 340.339023 
z
" clip-path="url(#p5dd3b76d31)" style="fill: #1f77b4; stroke: #000000; stroke-linejoin: miter"/>
   </g>
   <g id="patch_58">
    <path d="M 654.726987 355.275882 
L 664.694437 355.275882 
L 664.694437 346.313767 
L 654.726987 346.313767 
z
" clip-path="url(#p5dd3b76d31)" style="fill: #1f77b4; stroke: #000000; stroke-linejoin: miter"/>
   </g>
   <g id="matplotlib.axis_3">
    <g id="xtick_10">
     <g id="line2d_16">
      <g>
       <use xlink:href="#m54f98cc48c" x="400.275762" y="355.275882" style="stroke: #000000; stroke-width: 0.8"/>
      </g>
     </g>
     <g id="text_17">
      <!-- −10 -->
      <g transform="translate(389.723418 369.87432) scale(0.1 -0.1)">
       <use xlink:href="#DejaVuSans-2212"/>
       <use xlink:href="#DejaVuSans-31" transform="translate(83.789062 0)"/>
       <use xlink:href="#DejaVuSans-30" transform="translate(147.412109 0)"/>
      </g>
     </g>
    </g>
    <g id="xtick_11">
     <g id="line2d_17">
      <g>
       <use xlink:href="#m54f98cc48c" x="449.025518" y="355.275882" style="stroke: #000000; stroke-width: 0.8"/>
      </g>
     </g>
     <g id="text_18">
      <!-- −5 -->
      <g transform="translate(441.654424 369.87432) scale(0.1 -0.1)">
       <defs>
        <path id="DejaVuSans-35" d="M 691 4666 
L 3169 4666 
L 3169 4134 
L 1269 4134 
L 1269 2991 
Q 1406 3038 1543 3061 
Q 1681 3084 1819 3084 
Q 2600 3084 3056 2656 
Q 3513 2228 3513 1497 
Q 3513 744 3044 326 
Q 2575 -91 1722 -91 
Q 1428 -91 1123 -41 
Q 819 9 494 109 
L 494 744 
Q 775 591 1075 516 
Q 1375 441 1709 441 
Q 2250 441 2565 725 
Q 2881 1009 2881 1497 
Q 2881 1984 2565 2268 
Q 2250 2553 1709 2553 
Q 1456 2553 1204 2497 
Q 953 2441 691 2322 
L 691 4666 
z
" transform="scale(0.015625)"/>
       </defs>
       <use xlink:href="#DejaVuSans-2212"/>
       <use xlink:href="#DejaVuSans-35" transform="translate(83.789062 0)"/>
      </g>
     </g>
    </g>
    <g id="xtick_12">
     <g id="line2d_18">
      <g>
       <use xlink:href="#m54f98cc48c" x="497.775273" y="355.275882" style="stroke: #000000; stroke-width: 0.8"/>
      </g>
     </g>
     <g id="text_19">
      <!-- 0 -->
      <g transform="translate(494.594023 369.87432) scale(0.1 -0.1)">
       <use xlink:href="#DejaVuSans-30"/>
      </g>
     </g>
    </g>
    <g id="xtick_13">
     <g id="line2d_19">
      <g>
       <use xlink:href="#m54f98cc48c" x="546.525029" y="355.275882" style="stroke: #000000; stroke-width: 0.8"/>
      </g>
     </g>
     <g id="text_20">
      <!-- 5 -->
      <g transform="translate(543.343779 369.87432) scale(0.1 -0.1)">
       <use xlink:href="#DejaVuSans-35"/>
      </g>
     </g>
    </g>
    <g id="xtick_14">
     <g id="line2d_20">
      <g>
       <use xlink:href="#m54f98cc48c" x="595.274785" y="355.275882" style="stroke: #000000; stroke-width: 0.8"/>
      </g>
     </g>
     <g id="text_21">
      <!-- 10 -->
      <g transform="translate(588.912285 369.87432) scale(0.1 -0.1)">
       <use xlink:href="#DejaVuSans-31"/>
       <use xlink:href="#DejaVuSans-30" transform="translate(63.623047 0)"/>
      </g>
     </g>
    </g>
    <g id="xtick_15">
     <g id="line2d_21">
      <g>
       <use xlink:href="#m54f98cc48c" x="644.024541" y="355.275882" style="stroke: #000000; stroke-width: 0.8"/>
      </g>
     </g>
     <g id="text_22">
      <!-- 15 -->
      <g transform="translate(637.662041 369.87432) scale(0.1 -0.1)">
       <use xlink:href="#DejaVuSans-31"/>
       <use xlink:href="#DejaVuSans-35" transform="translate(63.623047 0)"/>
      </g>
     </g>
    </g>
   </g>
   <g id="matplotlib.axis_4">
    <g id="ytick_7">
     <g id="line2d_22">
      <g>
       <use xlink:href="#mf81d1430d3" x="392.58305" y="355.275882" style="stroke: #000000; stroke-width: 0.8"/>
      </g>
     </g>
     <g id="text_23">
      <!-- 0 -->
      <g transform="translate(379.22055 359.075101) scale(0.1 -0.1)">
       <use xlink:href="#DejaVuSans-30"/>
      </g>
     </g>
    </g>
    <g id="ytick_8">
     <g id="line2d_23">
      <g>
       <use xlink:href="#mf81d1430d3" x="392.58305" y="295.528443" style="stroke: #000000; stroke-width: 0.8"/>
      </g>
     </g>
     <g id="text_24">
      <!-- 20 -->
      <g transform="translate(372.85805 299.327662) scale(0.1 -0.1)">
       <use xlink:href="#DejaVuSans-32"/>
       <use xlink:href="#DejaVuSans-30" transform="translate(63.623047 0)"/>
      </g>
     </g>
    </g>
    <g id="ytick_9">
     <g id="line2d_24">
      <g>
       <use xlink:href="#mf81d1430d3" x="392.58305" y="235.781004" style="stroke: #000000; stroke-width: 0.8"/>
      </g>
     </g>
     <g id="text_25">
      <!-- 40 -->
      <g transform="translate(372.85805 239.580223) scale(0.1 -0.1)">
       <use xlink:href="#DejaVuSans-34"/>
       <use xlink:href="#DejaVuSans-30" transform="translate(63.623047 0)"/>
      </g>
     </g>
    </g>
    <g id="ytick_10">
     <g id="line2d_25">
      <g>
       <use xlink:href="#mf81d1430d3" x="392.58305" y="176.033565" style="stroke: #000000; stroke-width: 0.8"/>
      </g>
     </g>
     <g id="text_26">
      <!-- 60 -->
      <g transform="translate(372.85805 179.832784) scale(0.1 -0.1)">
       <use xlink:href="#DejaVuSans-36"/>
       <use xlink:href="#DejaVuSans-30" transform="translate(63.623047 0)"/>
      </g>
     </g>
    </g>
    <g id="ytick_11">
     <g id="line2d_26">
      <g>
       <use xlink:href="#mf81d1430d3" x="392.58305" y="116.286126" style="stroke: #000000; stroke-width: 0.8"/>
      </g>
     </g>
     <g id="text_27">
      <!-- 80 -->
      <g transform="translate(372.85805 120.085345) scale(0.1 -0.1)">
       <use xlink:href="#DejaVuSans-38"/>
       <use xlink:href="#DejaVuSans-30" transform="translate(63.623047 0)"/>
      </g>
     </g>
    </g>
    <g id="ytick_12">
     <g id="line2d_27">
      <g>
       <use xlink:href="#mf81d1430d3" x="392.58305" y="56.538687" style="stroke: #000000; stroke-width: 0.8"/>
      </g>
     </g>
     <g id="text_28">
      <!-- 100 -->
      <g transform="translate(366.49555 60.337906) scale(0.1 -0.1)">
       <use xlink:href="#DejaVuSans-31"/>
       <use xlink:href="#DejaVuSans-30" transform="translate(63.623047 0)"/>
       <use xlink:href="#DejaVuSans-30" transform="translate(127.246094 0)"/>
      </g>
     </g>
    </g>
   </g>
   <g id="patch_59">
    <path d="M 392.58305 355.275882 
L 392.58305 25.918125 
" style="fill: none; stroke: #000000; stroke-width: 0.8; stroke-linejoin: miter; stroke-linecap: square"/>
   </g>
   <g id="patch_60">
    <path d="M 677.652122 355.275882 
L 677.652122 25.918125 
" style="fill: none; stroke: #000000; stroke-width: 0.8; stroke-linejoin: miter; stroke-linecap: square"/>
   </g>
   <g id="patch_61">
    <path d="M 392.58305 355.275882 
L 677.652122 355.275882 
" style="fill: none; stroke: #000000; stroke-width: 0.8; stroke-linejoin: miter; stroke-linecap: square"/>
   </g>
   <g id="patch_62">
    <path d="M 392.58305 25.918125 
L 677.652122 25.918125 
" style="fill: none; stroke: #000000; stroke-width: 0.8; stroke-linejoin: miter; stroke-linecap: square"/>
   </g>
   <g id="text_29">
    <!-- 2 Standard Deviations -->
    <g transform="translate(468.363836 19.918125) scale(0.12 -0.12)">
     <defs>
      <path id="DejaVuSans-73" d="M 2834 3397 
L 2834 2853 
Q 2591 2978 2328 3040 
Q 2066 3103 1784 3103 
Q 1356 3103 1142 2972 
Q 928 2841 928 2578 
Q 928 2378 1081 2264 
Q 1234 2150 1697 2047 
L 1894 2003 
Q 2506 1872 2764 1633 
Q 3022 1394 3022 966 
Q 3022 478 2636 193 
Q 2250 -91 1575 -91 
Q 1294 -91 989 -36 
Q 684 19 347 128 
L 347 722 
Q 666 556 975 473 
Q 1284 391 1588 391 
Q 1994 391 2212 530 
Q 2431 669 2431 922 
Q 2431 1156 2273 1281 
Q 2116 1406 1581 1522 
L 1381 1569 
Q 847 1681 609 1914 
Q 372 2147 372 2553 
Q 372 3047 722 3315 
Q 1072 3584 1716 3584 
Q 2034 3584 2315 3537 
Q 2597 3491 2834 3397 
z
" transform="scale(0.015625)"/>
     </defs>
     <use xlink:href="#DejaVuSans-32"/>
     <use xlink:href="#DejaVuSans-20" transform="translate(63.623047 0)"/>
     <use xlink:href="#DejaVuSans-53" transform="translate(95.410156 0)"/>
     <use xlink:href="#DejaVuSans-74" transform="translate(158.886719 0)"/>
     <use xlink:href="#DejaVuSans-61" transform="translate(198.095703 0)"/>
     <use xlink:href="#DejaVuSans-6e" transform="translate(259.375 0)"/>
     <use xlink:href="#DejaVuSans-64" transform="translate(322.753906 0)"/>
     <use xlink:href="#DejaVuSans-61" transform="translate(386.230469 0)"/>
     <use xlink:href="#DejaVuSans-72" transform="translate(447.509766 0)"/>
     <use xlink:href="#DejaVuSans-64" transform="translate(486.873047 0)"/>
     <use xlink:href="#DejaVuSans-20" transform="translate(550.349609 0)"/>
     <use xlink:href="#DejaVuSans-44" transform="translate(582.136719 0)"/>
     <use xlink:href="#DejaVuSans-65" transform="translate(659.138672 0)"/>
     <use xlink:href="#DejaVuSans-76" transform="translate(720.662109 0)"/>
     <use xlink:href="#DejaVuSans-69" transform="translate(779.841797 0)"/>
     <use xlink:href="#DejaVuSans-61" transform="translate(807.625 0)"/>
     <use xlink:href="#DejaVuSans-74" transform="translate(868.904297 0)"/>
     <use xlink:href="#DejaVuSans-69" transform="translate(908.113281 0)"/>
     <use xlink:href="#DejaVuSans-6f" transform="translate(935.896484 0)"/>
     <use xlink:href="#DejaVuSans-6e" transform="translate(997.078125 0)"/>
     <use xlink:href="#DejaVuSans-73" transform="translate(1060.457031 0)"/>
    </g>
   </g>
  </g>
  <g id="axes_3">
   <g id="patch_63">
    <path d="M 748.278601 355.275882 
L 1033.347673 355.275882 
L 1033.347673 25.918125 
L 748.278601 25.918125 
z
" style="fill: #ffffff"/>
   </g>
   <g id="patch_64">
    <path d="M 761.236286 355.275882 
L 771.203736 355.275882 
L 771.203736 349.357504 
L 761.236286 349.357504 
z
" clip-path="url(#p5f3983c787)" style="fill: #1f77b4; stroke: #000000; stroke-linejoin: miter"/>
   </g>
   <g id="patch_65">
    <path d="M 771.203736 355.275882 
L 781.171186 355.275882 
L 781.171186 355.275882 
L 771.203736 355.275882 
z
" clip-path="url(#p5f3983c787)" style="fill: #1f77b4; stroke: #000000; stroke-linejoin: miter"/>
   </g>
   <g id="patch_66">
    <path d="M 781.171186 355.275882 
L 791.138636 355.275882 
L 791.138636 355.275882 
L 781.171186 355.275882 
z
" clip-path="url(#p5f3983c787)" style="fill: #1f77b4; stroke: #000000; stroke-linejoin: miter"/>
   </g>
   <g id="patch_67">
    <path d="M 791.138636 355.275882 
L 801.106086 355.275882 
L 801.106086 355.275882 
L 791.138636 355.275882 
z
" clip-path="url(#p5f3983c787)" style="fill: #1f77b4; stroke: #000000; stroke-linejoin: miter"/>
   </g>
   <g id="patch_68">
    <path d="M 801.106086 355.275882 
L 811.073536 355.275882 
L 811.073536 349.357504 
L 801.106086 349.357504 
z
" clip-path="url(#p5f3983c787)" style="fill: #1f77b4; stroke: #000000; stroke-linejoin: miter"/>
   </g>
   <g id="patch_69">
    <path d="M 811.073536 355.275882 
L 821.040986 355.275882 
L 821.040986 353.30309 
L 811.073536 353.30309 
z
" clip-path="url(#p5f3983c787)" style="fill: #1f77b4; stroke: #000000; stroke-linejoin: miter"/>
   </g>
   <g id="patch_70">
    <path d="M 821.040986 355.275882 
L 831.008436 355.275882 
L 831.008436 351.330297 
L 821.040986 351.330297 
z
" clip-path="url(#p5f3983c787)" style="fill: #1f77b4; stroke: #000000; stroke-linejoin: miter"/>
   </g>
   <g id="patch_71">
    <path d="M 831.008436 355.275882 
L 840.975886 355.275882 
L 840.975886 353.30309 
L 831.008436 353.30309 
z
" clip-path="url(#p5f3983c787)" style="fill: #1f77b4; stroke: #000000; stroke-linejoin: miter"/>
   </g>
   <g id="patch_72">
    <path d="M 840.975886 355.275882 
L 850.943336 355.275882 
L 850.943336 341.466333 
L 840.975886 341.466333 
z
" clip-path="url(#p5f3983c787)" style="fill: #1f77b4; stroke: #000000; stroke-linejoin: miter"/>
   </g>
   <g id="patch_73">
    <path d="M 850.943336 355.275882 
L 860.910786 355.275882 
L 860.910786 341.466333 
L 850.943336 341.466333 
z
" clip-path="url(#p5f3983c787)" style="fill: #1f77b4; stroke: #000000; stroke-linejoin: miter"/>
   </g>
   <g id="patch_74">
    <path d="M 860.910786 355.275882 
L 870.878237 355.275882 
L 870.878237 102.758404 
L 860.910786 102.758404 
z
" clip-path="url(#p5f3983c787)" style="fill: #1f77b4; stroke: #000000; stroke-linejoin: miter"/>
   </g>
   <g id="patch_75">
    <path d="M 870.878237 355.275882 
L 880.845687 355.275882 
L 880.845687 41.601828 
L 870.878237 41.601828 
z
" clip-path="url(#p5f3983c787)" style="fill: #1f77b4; stroke: #000000; stroke-linejoin: miter"/>
   </g>
   <g id="patch_76">
    <path d="M 880.845687 355.275882 
L 890.813137 355.275882 
L 890.813137 73.166512 
L 880.845687 73.166512 
z
" clip-path="url(#p5f3983c787)" style="fill: #1f77b4; stroke: #000000; stroke-linejoin: miter"/>
   </g>
   <g id="patch_77">
    <path d="M 890.813137 355.275882 
L 900.780587 355.275882 
L 900.780587 161.942188 
L 890.813137 161.942188 
z
" clip-path="url(#p5f3983c787)" style="fill: #1f77b4; stroke: #000000; stroke-linejoin: miter"/>
   </g>
   <g id="patch_78">
    <path d="M 900.780587 355.275882 
L 910.748037 355.275882 
L 910.748037 209.289215 
L 900.780587 209.289215 
z
" clip-path="url(#p5f3983c787)" style="fill: #1f77b4; stroke: #000000; stroke-linejoin: miter"/>
   </g>
   <g id="patch_79">
    <path d="M 910.748037 355.275882 
L 920.715487 355.275882 
L 920.715487 292.146513 
L 910.748037 292.146513 
z
" clip-path="url(#p5f3983c787)" style="fill: #1f77b4; stroke: #000000; stroke-linejoin: miter"/>
   </g>
   <g id="patch_80">
    <path d="M 920.715487 355.275882 
L 930.682937 355.275882 
L 930.682937 329.629576 
L 920.715487 329.629576 
z
" clip-path="url(#p5f3983c787)" style="fill: #1f77b4; stroke: #000000; stroke-linejoin: miter"/>
   </g>
   <g id="patch_81">
    <path d="M 930.682937 355.275882 
L 940.650387 355.275882 
L 940.650387 329.629576 
L 930.682937 329.629576 
z
" clip-path="url(#p5f3983c787)" style="fill: #1f77b4; stroke: #000000; stroke-linejoin: miter"/>
   </g>
   <g id="patch_82">
    <path d="M 940.650387 355.275882 
L 950.617837 355.275882 
L 950.617837 339.49354 
L 940.650387 339.49354 
z
" clip-path="url(#p5f3983c787)" style="fill: #1f77b4; stroke: #000000; stroke-linejoin: miter"/>
   </g>
   <g id="patch_83">
    <path d="M 950.617837 355.275882 
L 960.585287 355.275882 
L 960.585287 341.466333 
L 950.617837 341.466333 
z
" clip-path="url(#p5f3983c787)" style="fill: #1f77b4; stroke: #000000; stroke-linejoin: miter"/>
   </g>
   <g id="patch_84">
    <path d="M 960.585287 355.275882 
L 970.552737 355.275882 
L 970.552737 349.357504 
L 960.585287 349.357504 
z
" clip-path="url(#p5f3983c787)" style="fill: #1f77b4; stroke: #000000; stroke-linejoin: miter"/>
   </g>
   <g id="patch_85">
    <path d="M 970.552737 355.275882 
L 980.520187 355.275882 
L 980.520187 355.275882 
L 970.552737 355.275882 
z
" clip-path="url(#p5f3983c787)" style="fill: #1f77b4; stroke: #000000; stroke-linejoin: miter"/>
   </g>
   <g id="patch_86">
    <path d="M 980.520187 355.275882 
L 990.487637 355.275882 
L 990.487637 349.357504 
L 980.520187 349.357504 
z
" clip-path="url(#p5f3983c787)" style="fill: #1f77b4; stroke: #000000; stroke-linejoin: miter"/>
   </g>
   <g id="patch_87">
    <path d="M 990.487637 355.275882 
L 1000.455087 355.275882 
L 1000.455087 353.30309 
L 990.487637 353.30309 
z
" clip-path="url(#p5f3983c787)" style="fill: #1f77b4; stroke: #000000; stroke-linejoin: miter"/>
   </g>
   <g id="patch_88">
    <path d="M 1000.455087 355.275882 
L 1010.422537 355.275882 
L 1010.422537 351.330297 
L 1000.455087 351.330297 
z
" clip-path="url(#p5f3983c787)" style="fill: #1f77b4; stroke: #000000; stroke-linejoin: miter"/>
   </g>
   <g id="patch_89">
    <path d="M 1010.422537 355.275882 
L 1020.389987 355.275882 
L 1020.389987 347.384711 
L 1010.422537 347.384711 
z
" clip-path="url(#p5f3983c787)" style="fill: #1f77b4; stroke: #000000; stroke-linejoin: miter"/>
   </g>
   <g id="matplotlib.axis_5">
    <g id="xtick_16">
     <g id="line2d_28">
      <g>
       <use xlink:href="#m54f98cc48c" x="802.722939" y="355.275882" style="stroke: #000000; stroke-width: 0.8"/>
      </g>
     </g>
     <g id="text_30">
      <!-- −10 -->
      <g transform="translate(792.170595 369.87432) scale(0.1 -0.1)">
       <use xlink:href="#DejaVuSans-2212"/>
       <use xlink:href="#DejaVuSans-31" transform="translate(83.789062 0)"/>
       <use xlink:href="#DejaVuSans-30" transform="translate(147.412109 0)"/>
      </g>
     </g>
    </g>
    <g id="xtick_17">
     <g id="line2d_29">
      <g>
       <use xlink:href="#m54f98cc48c" x="864.003076" y="355.275882" style="stroke: #000000; stroke-width: 0.8"/>
      </g>
     </g>
     <g id="text_31">
      <!-- 0 -->
      <g transform="translate(860.821826 369.87432) scale(0.1 -0.1)">
       <use xlink:href="#DejaVuSans-30"/>
      </g>
     </g>
    </g>
    <g id="xtick_18">
     <g id="line2d_30">
      <g>
       <use xlink:href="#m54f98cc48c" x="925.283214" y="355.275882" style="stroke: #000000; stroke-width: 0.8"/>
      </g>
     </g>
     <g id="text_32">
      <!-- 10 -->
      <g transform="translate(918.920714 369.87432) scale(0.1 -0.1)">
       <use xlink:href="#DejaVuSans-31"/>
       <use xlink:href="#DejaVuSans-30" transform="translate(63.623047 0)"/>
      </g>
     </g>
    </g>
    <g id="xtick_19">
     <g id="line2d_31">
      <g>
       <use xlink:href="#m54f98cc48c" x="986.563352" y="355.275882" style="stroke: #000000; stroke-width: 0.8"/>
      </g>
     </g>
     <g id="text_33">
      <!-- 20 -->
      <g transform="translate(980.200852 369.87432) scale(0.1 -0.1)">
       <use xlink:href="#DejaVuSans-32"/>
       <use xlink:href="#DejaVuSans-30" transform="translate(63.623047 0)"/>
      </g>
     </g>
    </g>
   </g>
   <g id="matplotlib.axis_6">
    <g id="ytick_13">
     <g id="line2d_32">
      <g>
       <use xlink:href="#mf81d1430d3" x="748.278601" y="355.275882" style="stroke: #000000; stroke-width: 0.8"/>
      </g>
     </g>
     <g id="text_34">
      <!-- 0 -->
      <g transform="translate(734.916101 359.075101) scale(0.1 -0.1)">
       <use xlink:href="#DejaVuSans-30"/>
      </g>
     </g>
    </g>
    <g id="ytick_14">
     <g id="line2d_33">
      <g>
       <use xlink:href="#mf81d1430d3" x="748.278601" y="315.820026" style="stroke: #000000; stroke-width: 0.8"/>
      </g>
     </g>
     <g id="text_35">
      <!-- 20 -->
      <g transform="translate(728.553601 319.619245) scale(0.1 -0.1)">
       <use xlink:href="#DejaVuSans-32"/>
       <use xlink:href="#DejaVuSans-30" transform="translate(63.623047 0)"/>
      </g>
     </g>
    </g>
    <g id="ytick_15">
     <g id="line2d_34">
      <g>
       <use xlink:href="#mf81d1430d3" x="748.278601" y="276.36417" style="stroke: #000000; stroke-width: 0.8"/>
      </g>
     </g>
     <g id="text_36">
      <!-- 40 -->
      <g transform="translate(728.553601 280.163389) scale(0.1 -0.1)">
       <use xlink:href="#DejaVuSans-34"/>
       <use xlink:href="#DejaVuSans-30" transform="translate(63.623047 0)"/>
      </g>
     </g>
    </g>
    <g id="ytick_16">
     <g id="line2d_35">
      <g>
       <use xlink:href="#mf81d1430d3" x="748.278601" y="236.908315" style="stroke: #000000; stroke-width: 0.8"/>
      </g>
     </g>
     <g id="text_37">
      <!-- 60 -->
      <g transform="translate(728.553601 240.707533) scale(0.1 -0.1)">
       <use xlink:href="#DejaVuSans-36"/>
       <use xlink:href="#DejaVuSans-30" transform="translate(63.623047 0)"/>
      </g>
     </g>
    </g>
    <g id="ytick_17">
     <g id="line2d_36">
      <g>
       <use xlink:href="#mf81d1430d3" x="748.278601" y="197.452459" style="stroke: #000000; stroke-width: 0.8"/>
      </g>
     </g>
     <g id="text_38">
      <!-- 80 -->
      <g transform="translate(728.553601 201.251677) scale(0.1 -0.1)">
       <use xlink:href="#DejaVuSans-38"/>
       <use xlink:href="#DejaVuSans-30" transform="translate(63.623047 0)"/>
      </g>
     </g>
    </g>
    <g id="ytick_18">
     <g id="line2d_37">
      <g>
       <use xlink:href="#mf81d1430d3" x="748.278601" y="157.996603" style="stroke: #000000; stroke-width: 0.8"/>
      </g>
     </g>
     <g id="text_39">
      <!-- 100 -->
      <g transform="translate(722.191101 161.795821) scale(0.1 -0.1)">
       <use xlink:href="#DejaVuSans-31"/>
       <use xlink:href="#DejaVuSans-30" transform="translate(63.623047 0)"/>
       <use xlink:href="#DejaVuSans-30" transform="translate(127.246094 0)"/>
      </g>
     </g>
    </g>
    <g id="ytick_19">
     <g id="line2d_38">
      <g>
       <use xlink:href="#mf81d1430d3" x="748.278601" y="118.540747" style="stroke: #000000; stroke-width: 0.8"/>
      </g>
     </g>
     <g id="text_40">
      <!-- 120 -->
      <g transform="translate(722.191101 122.339966) scale(0.1 -0.1)">
       <use xlink:href="#DejaVuSans-31"/>
       <use xlink:href="#DejaVuSans-32" transform="translate(63.623047 0)"/>
       <use xlink:href="#DejaVuSans-30" transform="translate(127.246094 0)"/>
      </g>
     </g>
    </g>
    <g id="ytick_20">
     <g id="line2d_39">
      <g>
       <use xlink:href="#mf81d1430d3" x="748.278601" y="79.084891" style="stroke: #000000; stroke-width: 0.8"/>
      </g>
     </g>
     <g id="text_41">
      <!-- 140 -->
      <g transform="translate(722.191101 82.88411) scale(0.1 -0.1)">
       <use xlink:href="#DejaVuSans-31"/>
       <use xlink:href="#DejaVuSans-34" transform="translate(63.623047 0)"/>
       <use xlink:href="#DejaVuSans-30" transform="translate(127.246094 0)"/>
      </g>
     </g>
    </g>
    <g id="ytick_21">
     <g id="line2d_40">
      <g>
       <use xlink:href="#mf81d1430d3" x="748.278601" y="39.629035" style="stroke: #000000; stroke-width: 0.8"/>
      </g>
     </g>
     <g id="text_42">
      <!-- 160 -->
      <g transform="translate(722.191101 43.428254) scale(0.1 -0.1)">
       <use xlink:href="#DejaVuSans-31"/>
       <use xlink:href="#DejaVuSans-36" transform="translate(63.623047 0)"/>
       <use xlink:href="#DejaVuSans-30" transform="translate(127.246094 0)"/>
      </g>
     </g>
    </g>
   </g>
   <g id="patch_90">
    <path d="M 748.278601 355.275882 
L 748.278601 25.918125 
" style="fill: none; stroke: #000000; stroke-width: 0.8; stroke-linejoin: miter; stroke-linecap: square"/>
   </g>
   <g id="patch_91">
    <path d="M 1033.347673 355.275882 
L 1033.347673 25.918125 
" style="fill: none; stroke: #000000; stroke-width: 0.8; stroke-linejoin: miter; stroke-linecap: square"/>
   </g>
   <g id="patch_92">
    <path d="M 748.278601 355.275882 
L 1033.347673 355.275882 
" style="fill: none; stroke: #000000; stroke-width: 0.8; stroke-linejoin: miter; stroke-linecap: square"/>
   </g>
   <g id="patch_93">
    <path d="M 748.278601 25.918125 
L 1033.347673 25.918125 
" style="fill: none; stroke: #000000; stroke-width: 0.8; stroke-linejoin: miter; stroke-linecap: square"/>
   </g>
   <g id="text_43">
    <!-- 3 Standard Deviations -->
    <g transform="translate(824.059387 19.918125) scale(0.12 -0.12)">
     <defs>
      <path id="DejaVuSans-33" d="M 2597 2516 
Q 3050 2419 3304 2112 
Q 3559 1806 3559 1356 
Q 3559 666 3084 287 
Q 2609 -91 1734 -91 
Q 1441 -91 1130 -33 
Q 819 25 488 141 
L 488 750 
Q 750 597 1062 519 
Q 1375 441 1716 441 
Q 2309 441 2620 675 
Q 2931 909 2931 1356 
Q 2931 1769 2642 2001 
Q 2353 2234 1838 2234 
L 1294 2234 
L 1294 2753 
L 1863 2753 
Q 2328 2753 2575 2939 
Q 2822 3125 2822 3475 
Q 2822 3834 2567 4026 
Q 2313 4219 1838 4219 
Q 1578 4219 1281 4162 
Q 984 4106 628 3988 
L 628 4550 
Q 988 4650 1302 4700 
Q 1616 4750 1894 4750 
Q 2613 4750 3031 4423 
Q 3450 4097 3450 3541 
Q 3450 3153 3228 2886 
Q 3006 2619 2597 2516 
z
" transform="scale(0.015625)"/>
     </defs>
     <use xlink:href="#DejaVuSans-33"/>
     <use xlink:href="#DejaVuSans-20" transform="translate(63.623047 0)"/>
     <use xlink:href="#DejaVuSans-53" transform="translate(95.410156 0)"/>
     <use xlink:href="#DejaVuSans-74" transform="translate(158.886719 0)"/>
     <use xlink:href="#DejaVuSans-61" transform="translate(198.095703 0)"/>
     <use xlink:href="#DejaVuSans-6e" transform="translate(259.375 0)"/>
     <use xlink:href="#DejaVuSans-64" transform="translate(322.753906 0)"/>
     <use xlink:href="#DejaVuSans-61" transform="translate(386.230469 0)"/>
     <use xlink:href="#DejaVuSans-72" transform="translate(447.509766 0)"/>
     <use xlink:href="#DejaVuSans-64" transform="translate(486.873047 0)"/>
     <use xlink:href="#DejaVuSans-20" transform="translate(550.349609 0)"/>
     <use xlink:href="#DejaVuSans-44" transform="translate(582.136719 0)"/>
     <use xlink:href="#DejaVuSans-65" transform="translate(659.138672 0)"/>
     <use xlink:href="#DejaVuSans-76" transform="translate(720.662109 0)"/>
     <use xlink:href="#DejaVuSans-69" transform="translate(779.841797 0)"/>
     <use xlink:href="#DejaVuSans-61" transform="translate(807.625 0)"/>
     <use xlink:href="#DejaVuSans-74" transform="translate(868.904297 0)"/>
     <use xlink:href="#DejaVuSans-69" transform="translate(908.113281 0)"/>
     <use xlink:href="#DejaVuSans-6f" transform="translate(935.896484 0)"/>
     <use xlink:href="#DejaVuSans-6e" transform="translate(997.078125 0)"/>
     <use xlink:href="#DejaVuSans-73" transform="translate(1060.457031 0)"/>
    </g>
   </g>
  </g>
  <g id="axes_4">
   <g id="patch_94">
    <path d="M 179.422036 430.493493 
C 163.928266 430.493493 148.595824 433.651371 134.363046 439.773866 
C 120.130269 445.896361 107.293551 454.855974 96.638494 466.10438 
C 85.983437 477.352786 77.731929 490.655742 72.388959 505.19911 
C 67.045989 519.742478 64.722823 535.223399 65.561638 550.694445 
C 66.400453 566.165492 70.38378 581.304485 77.267842 595.184923 
C 84.151904 609.065362 93.793342 621.398191 105.602105 631.428646 
C 117.410867 641.459101 131.141039 648.978301 145.952341 653.526074 
C 160.763642 658.073846 176.347632 659.555486 191.750577 657.880317 
L 179.422036 544.521121 
z
" style="fill: #1f77b4"/>
   </g>
   <g id="patch_95">
    <path d="M 191.750577 657.880317 
C 220.743225 654.72718 247.449435 640.568448 266.329557 618.341057 
C 285.209679 596.113665 294.861315 567.468643 293.282434 538.347808 
C 291.703553 509.226973 279.011432 481.79339 257.838789 461.73759 
C 236.666146 441.681791 208.585663 430.493498 179.422057 430.493493 
L 179.422036 544.521121 
z
" style="fill: #ff7f0e"/>
   </g>
   <g id="matplotlib.axis_7"/>
   <g id="matplotlib.axis_8"/>
   <g id="text_44">
    <!-- Healthy -->
    <g transform="translate(15.419348 554.071153) scale(0.1 -0.1)">
     <defs>
      <path id="DejaVuSans-48" d="M 628 4666 
L 1259 4666 
L 1259 2753 
L 3553 2753 
L 3553 4666 
L 4184 4666 
L 4184 0 
L 3553 0 
L 3553 2222 
L 1259 2222 
L 1259 0 
L 628 0 
L 628 4666 
z
" transform="scale(0.015625)"/>
      <path id="DejaVuSans-6c" d="M 603 4863 
L 1178 4863 
L 1178 0 
L 603 0 
L 603 4863 
z
" transform="scale(0.015625)"/>
      <path id="DejaVuSans-68" d="M 3513 2113 
L 3513 0 
L 2938 0 
L 2938 2094 
Q 2938 2591 2744 2837 
Q 2550 3084 2163 3084 
Q 1697 3084 1428 2787 
Q 1159 2491 1159 1978 
L 1159 0 
L 581 0 
L 581 4863 
L 1159 4863 
L 1159 2956 
Q 1366 3272 1645 3428 
Q 1925 3584 2291 3584 
Q 2894 3584 3203 3211 
Q 3513 2838 3513 2113 
z
" transform="scale(0.015625)"/>
      <path id="DejaVuSans-79" d="M 2059 -325 
Q 1816 -950 1584 -1140 
Q 1353 -1331 966 -1331 
L 506 -1331 
L 506 -850 
L 844 -850 
Q 1081 -850 1212 -737 
Q 1344 -625 1503 -206 
L 1606 56 
L 191 3500 
L 800 3500 
L 1894 763 
L 2988 3500 
L 3597 3500 
L 2059 -325 
z
" transform="scale(0.015625)"/>
     </defs>
     <use xlink:href="#DejaVuSans-48"/>
     <use xlink:href="#DejaVuSans-65" transform="translate(75.195312 0)"/>
     <use xlink:href="#DejaVuSans-61" transform="translate(136.71875 0)"/>
     <use xlink:href="#DejaVuSans-6c" transform="translate(197.998047 0)"/>
     <use xlink:href="#DejaVuSans-74" transform="translate(225.78125 0)"/>
     <use xlink:href="#DejaVuSans-68" transform="translate(264.990234 0)"/>
     <use xlink:href="#DejaVuSans-79" transform="translate(328.369141 0)"/>
    </g>
   </g>
   <g id="text_45">
    <!-- 51.7% -->
    <g transform="translate(95.222203 550.984491) scale(0.1 -0.1)">
     <defs>
      <path id="DejaVuSans-2e" d="M 684 794 
L 1344 794 
L 1344 0 
L 684 0 
L 684 794 
z
" transform="scale(0.015625)"/>
      <path id="DejaVuSans-37" d="M 525 4666 
L 3525 4666 
L 3525 4397 
L 1831 0 
L 1172 0 
L 2766 4134 
L 525 4134 
L 525 4666 
z
" transform="scale(0.015625)"/>
      <path id="DejaVuSans-25" d="M 4653 2053 
Q 4381 2053 4226 1822 
Q 4072 1591 4072 1178 
Q 4072 772 4226 539 
Q 4381 306 4653 306 
Q 4919 306 5073 539 
Q 5228 772 5228 1178 
Q 5228 1588 5073 1820 
Q 4919 2053 4653 2053 
z
M 4653 2450 
Q 5147 2450 5437 2106 
Q 5728 1763 5728 1178 
Q 5728 594 5436 251 
Q 5144 -91 4653 -91 
Q 4153 -91 3862 251 
Q 3572 594 3572 1178 
Q 3572 1766 3864 2108 
Q 4156 2450 4653 2450 
z
M 1428 4353 
Q 1159 4353 1004 4120 
Q 850 3888 850 3481 
Q 850 3069 1003 2837 
Q 1156 2606 1428 2606 
Q 1700 2606 1854 2837 
Q 2009 3069 2009 3481 
Q 2009 3884 1853 4118 
Q 1697 4353 1428 4353 
z
M 4250 4750 
L 4750 4750 
L 1831 -91 
L 1331 -91 
L 4250 4750 
z
M 1428 4750 
Q 1922 4750 2215 4408 
Q 2509 4066 2509 3481 
Q 2509 2891 2217 2550 
Q 1925 2209 1428 2209 
Q 931 2209 642 2551 
Q 353 2894 353 3481 
Q 353 4063 643 4406 
Q 934 4750 1428 4750 
z
" transform="scale(0.015625)"/>
     </defs>
     <use xlink:href="#DejaVuSans-35"/>
     <use xlink:href="#DejaVuSans-31" transform="translate(63.623047 0)"/>
     <use xlink:href="#DejaVuSans-2e" transform="translate(127.246094 0)"/>
     <use xlink:href="#DejaVuSans-37" transform="translate(159.033203 0)"/>
     <use xlink:href="#DejaVuSans-25" transform="translate(222.65625 0)"/>
    </g>
   </g>
   <g id="text_46">
    <!-- Unhealthy -->
    <g transform="translate(304.668474 540.489852) scale(0.1 -0.1)">
     <defs>
      <path id="DejaVuSans-55" d="M 556 4666 
L 1191 4666 
L 1191 1831 
Q 1191 1081 1462 751 
Q 1734 422 2344 422 
Q 2950 422 3222 751 
Q 3494 1081 3494 1831 
L 3494 4666 
L 4128 4666 
L 4128 1753 
Q 4128 841 3676 375 
Q 3225 -91 2344 -91 
Q 1459 -91 1007 375 
Q 556 841 556 1753 
L 556 4666 
z
" transform="scale(0.015625)"/>
     </defs>
     <use xlink:href="#DejaVuSans-55"/>
     <use xlink:href="#DejaVuSans-6e" transform="translate(73.193359 0)"/>
     <use xlink:href="#DejaVuSans-68" transform="translate(136.572266 0)"/>
     <use xlink:href="#DejaVuSans-65" transform="translate(199.951172 0)"/>
     <use xlink:href="#DejaVuSans-61" transform="translate(261.474609 0)"/>
     <use xlink:href="#DejaVuSans-6c" transform="translate(322.753906 0)"/>
     <use xlink:href="#DejaVuSans-74" transform="translate(350.537109 0)"/>
     <use xlink:href="#DejaVuSans-68" transform="translate(389.746094 0)"/>
     <use xlink:href="#DejaVuSans-79" transform="translate(453.125 0)"/>
    </g>
   </g>
   <g id="text_47">
    <!-- 48.3% -->
    <g transform="translate(231.854681 543.576508) scale(0.1 -0.1)">
     <use xlink:href="#DejaVuSans-34"/>
     <use xlink:href="#DejaVuSans-38" transform="translate(63.623047 0)"/>
     <use xlink:href="#DejaVuSans-2e" transform="translate(127.246094 0)"/>
     <use xlink:href="#DejaVuSans-33" transform="translate(159.033203 0)"/>
     <use xlink:href="#DejaVuSans-25" transform="translate(222.65625 0)"/>
    </g>
   </g>
  </g>
  <g id="axes_5">
   <g id="patch_96">
    <path d="M 535.117586 430.493493 
C 519.259228 430.493493 503.573877 433.801737 489.066325 440.206303 
C 474.558773 446.610868 461.54556 455.972013 450.860305 467.690069 
C 440.175049 479.408125 432.050892 493.227416 427.008262 508.262688 
C 421.965631 523.297959 420.114551 539.221157 421.573602 555.012253 
C 423.032653 570.803348 427.77 586.117795 435.48217 599.97456 
C 443.19434 613.831326 453.713063 625.928069 466.364516 635.489882 
C 479.015969 645.051695 493.52411 651.869947 508.959558 655.507867 
C 524.395007 659.145787 540.420976 659.523998 556.010853 656.618273 
L 535.117586 544.521121 
z
" style="fill: #1f77b4"/>
   </g>
   <g id="patch_97">
    <path d="M 556.010853 656.618273 
C 583.947033 651.411379 608.952124 635.944877 626.08635 613.274187 
C 643.220576 590.603498 651.276109 562.326729 648.661569 534.029979 
C 646.04703 505.73323 632.946723 479.4112 611.948627 460.263829 
C 590.95053 441.116458 563.534846 430.493487 535.117565 430.493493 
L 535.117586 544.521121 
z
" style="fill: #ff7f0e"/>
   </g>
   <g id="matplotlib.axis_9"/>
   <g id="matplotlib.axis_10"/>
   <g id="text_48">
    <!-- Healthy -->
    <g transform="translate(371.462954 558.820741) scale(0.1 -0.1)">
     <use xlink:href="#DejaVuSans-48"/>
     <use xlink:href="#DejaVuSans-65" transform="translate(75.195312 0)"/>
     <use xlink:href="#DejaVuSans-61" transform="translate(136.71875 0)"/>
     <use xlink:href="#DejaVuSans-6c" transform="translate(197.998047 0)"/>
     <use xlink:href="#DejaVuSans-74" transform="translate(225.78125 0)"/>
     <use xlink:href="#DejaVuSans-68" transform="translate(264.990234 0)"/>
     <use xlink:href="#DejaVuSans-79" transform="translate(328.369141 0)"/>
    </g>
   </g>
   <g id="text_49">
    <!-- 52.9% -->
    <g transform="translate(451.107602 553.575175) scale(0.1 -0.1)">
     <defs>
      <path id="DejaVuSans-39" d="M 703 97 
L 703 672 
Q 941 559 1184 500 
Q 1428 441 1663 441 
Q 2288 441 2617 861 
Q 2947 1281 2994 2138 
Q 2813 1869 2534 1725 
Q 2256 1581 1919 1581 
Q 1219 1581 811 2004 
Q 403 2428 403 3163 
Q 403 3881 828 4315 
Q 1253 4750 1959 4750 
Q 2769 4750 3195 4129 
Q 3622 3509 3622 2328 
Q 3622 1225 3098 567 
Q 2575 -91 1691 -91 
Q 1453 -91 1209 -44 
Q 966 3 703 97 
z
M 1959 2075 
Q 2384 2075 2632 2365 
Q 2881 2656 2881 3163 
Q 2881 3666 2632 3958 
Q 2384 4250 1959 4250 
Q 1534 4250 1286 3958 
Q 1038 3666 1038 3163 
Q 1038 2656 1286 2365 
Q 1534 2075 1959 2075 
z
" transform="scale(0.015625)"/>
     </defs>
     <use xlink:href="#DejaVuSans-35"/>
     <use xlink:href="#DejaVuSans-32" transform="translate(63.623047 0)"/>
     <use xlink:href="#DejaVuSans-2e" transform="translate(127.246094 0)"/>
     <use xlink:href="#DejaVuSans-39" transform="translate(159.033203 0)"/>
     <use xlink:href="#DejaVuSans-25" transform="translate(222.65625 0)"/>
    </g>
   </g>
   <g id="text_50">
    <!-- Unhealthy -->
    <g transform="translate(660.015967 535.74024) scale(0.1 -0.1)">
     <use xlink:href="#DejaVuSans-55"/>
     <use xlink:href="#DejaVuSans-6e" transform="translate(73.193359 0)"/>
     <use xlink:href="#DejaVuSans-68" transform="translate(136.572266 0)"/>
     <use xlink:href="#DejaVuSans-65" transform="translate(199.951172 0)"/>
     <use xlink:href="#DejaVuSans-61" transform="translate(261.474609 0)"/>
     <use xlink:href="#DejaVuSans-6c" transform="translate(322.753906 0)"/>
     <use xlink:href="#DejaVuSans-74" transform="translate(350.537109 0)"/>
     <use xlink:href="#DejaVuSans-68" transform="translate(389.746094 0)"/>
     <use xlink:href="#DejaVuSans-79" transform="translate(453.125 0)"/>
    </g>
   </g>
   <g id="text_51">
    <!-- 47.1% -->
    <g transform="translate(587.360382 540.985811) scale(0.1 -0.1)">
     <use xlink:href="#DejaVuSans-34"/>
     <use xlink:href="#DejaVuSans-37" transform="translate(63.623047 0)"/>
     <use xlink:href="#DejaVuSans-2e" transform="translate(127.246094 0)"/>
     <use xlink:href="#DejaVuSans-31" transform="translate(159.033203 0)"/>
     <use xlink:href="#DejaVuSans-25" transform="translate(222.65625 0)"/>
    </g>
   </g>
  </g>
  <g id="axes_6">
   <g id="patch_98">
    <path d="M 890.813137 430.493493 
C 874.822604 430.493493 859.009447 433.857114 844.403282 440.365346 
C 829.797117 446.873579 816.721984 456.382036 806.029222 468.27161 
C 795.33646 480.161185 787.263289 494.168104 782.335365 509.380359 
C 777.407441 524.592614 775.73409 540.672718 777.424266 556.573676 
C 779.114442 572.474634 784.130648 587.843678 792.146273 601.680112 
C 800.161899 615.516546 810.999114 627.513404 823.952295 636.889557 
C 836.905476 646.26571 851.687254 652.813146 867.335168 656.105552 
C 882.983082 659.397958 899.149979 659.362291 914.783214 656.000875 
L 890.813137 544.521121 
z
" style="fill: #1f77b4"/>
   </g>
   <g id="patch_99">
    <path d="M 914.783214 656.000875 
C 942.301385 650.083992 966.677338 634.182608 983.181573 611.381963 
C 999.685807 588.581317 1007.177115 560.457992 1004.202007 532.468567 
C 1001.2269 504.479141 987.991096 478.558984 967.062648 459.737207 
C 946.1342 440.91543 918.960236 430.493493 890.813137 430.493493 
L 890.813137 544.521121 
z
" style="fill: #ff7f0e"/>
   </g>
   <g id="matplotlib.axis_11"/>
   <g id="matplotlib.axis_12"/>
   <g id="text_52">
    <!-- Healthy -->
    <g transform="translate(727.329129 560.538306) scale(0.1 -0.1)">
     <use xlink:href="#DejaVuSans-48"/>
     <use xlink:href="#DejaVuSans-65" transform="translate(75.195312 0)"/>
     <use xlink:href="#DejaVuSans-61" transform="translate(136.71875 0)"/>
     <use xlink:href="#DejaVuSans-6c" transform="translate(197.998047 0)"/>
     <use xlink:href="#DejaVuSans-74" transform="translate(225.78125 0)"/>
     <use xlink:href="#DejaVuSans-68" transform="translate(264.990234 0)"/>
     <use xlink:href="#DejaVuSans-79" transform="translate(328.369141 0)"/>
    </g>
   </g>
   <g id="text_53">
    <!-- 53.4% -->
    <g transform="translate(806.89622 554.512029) scale(0.1 -0.1)">
     <use xlink:href="#DejaVuSans-35"/>
     <use xlink:href="#DejaVuSans-33" transform="translate(63.623047 0)"/>
     <use xlink:href="#DejaVuSans-2e" transform="translate(127.246094 0)"/>
     <use xlink:href="#DejaVuSans-34" transform="translate(159.033203 0)"/>
     <use xlink:href="#DejaVuSans-25" transform="translate(222.65625 0)"/>
    </g>
   </g>
   <g id="text_54">
    <!-- Unhealthy -->
    <g transform="translate(1015.540895 534.022686) scale(0.1 -0.1)">
     <use xlink:href="#DejaVuSans-55"/>
     <use xlink:href="#DejaVuSans-6e" transform="translate(73.193359 0)"/>
     <use xlink:href="#DejaVuSans-68" transform="translate(136.572266 0)"/>
     <use xlink:href="#DejaVuSans-65" transform="translate(199.951172 0)"/>
     <use xlink:href="#DejaVuSans-61" transform="translate(261.474609 0)"/>
     <use xlink:href="#DejaVuSans-6c" transform="translate(322.753906 0)"/>
     <use xlink:href="#DejaVuSans-74" transform="translate(350.537109 0)"/>
     <use xlink:href="#DejaVuSans-68" transform="translate(389.746094 0)"/>
     <use xlink:href="#DejaVuSans-79" transform="translate(453.125 0)"/>
    </g>
   </g>
   <g id="text_55">
    <!-- 46.6% -->
    <g transform="translate(942.962865 540.048964) scale(0.1 -0.1)">
     <use xlink:href="#DejaVuSans-34"/>
     <use xlink:href="#DejaVuSans-36" transform="translate(63.623047 0)"/>
     <use xlink:href="#DejaVuSans-2e" transform="translate(127.246094 0)"/>
     <use xlink:href="#DejaVuSans-36" transform="translate(159.033203 0)"/>
     <use xlink:href="#DejaVuSans-25" transform="translate(222.65625 0)"/>
    </g>
   </g>
  </g>
 </g>
 <defs>
  <clipPath id="p9dfa90f334">
   <rect x="36.8875" y="25.918125" width="285.069072" height="329.357757"/>
  </clipPath>
  <clipPath id="p5dd3b76d31">
   <rect x="392.58305" y="25.918125" width="285.069072" height="329.357757"/>
  </clipPath>
  <clipPath id="p5f3983c787">
   <rect x="748.278601" y="25.918125" width="285.069072" height="329.357757"/>
  </clipPath>
 </defs>
</svg>
